<?xml version="1.0" encoding="utf-8"?>
<!-- Svg Vector Icons : http://www.onlinewebfonts.com/icon -->
<!DOCTYPE svg PUBLIC "-//W3C//DTD SVG 1.1//EN" "http://www.w3.org/Graphics/SVG/1.1/DTD/svg11.dtd">
<svg version="1.1" xmlns="http://www.w3.org/2000/svg" xmlns:xlink="http://www.w3.org/1999/xlink" x="0px" y="0px" viewBox="0 0 1000 1000" enable-background="new 0 0 1000 1000" xml:space="preserve">
<metadata> Svg Vector Icons : http://www.onlinewebfonts.com/icon </metadata>
<g><path d="M500,59c243.2,0,441,197.8,441,441c0,243.2-197.8,441-441,441C256.8,941,59,743.2,59,500C59,256.8,256.8,59,500,59 M500,10C229.4,10,10,229.4,10,500c0,270.7,219.4,490,490,490c270.7,0,490-219.3,490-490C990,229.4,770.7,10,500,10L500,10z"/><path d="M362.1,249.9c29.6-5.6,49,27.8,63.7,50.8c14.4,22.3,32,48.6,24.9,77.6c-4,16.3-18.7,25.2-29.9,34.8c-11,9.5-27.8,18.2-31.8,32.8c-6.6,23.7,7.9,48.6,16.9,62.7c20.4,32,45.1,60.8,76.7,86.6c15.3,12.5,36.5,29.2,57.7,24.9c31.7-6.4,40.1-45.5,74.7-50.8c32.9-5,55.1,18.9,73.7,34.8c17.9,15.5,46.7,35.3,44.8,61.7c-1.2,15.2-13.4,24.6-23.9,33.8c-10.8,9.4-20.2,19.9-30.8,26.9c-25.8,16.8-57.3,25-93.6,23.9c-35.5-1.1-63.9-13.2-89.6-26.9c-50.3-26.8-90-64.5-127.4-106.5c-36.8-41.3-70.8-90.2-89.6-144.3c-23.4-67.5-11-136.9,26.9-180.1c6.4-7.3,16.6-15,25.8-22.9C340.5,262,349.1,252.4,362.1,249.9z"/></g>
</svg>